<svg xmlns="http://www.w3.org/2000/svg" width="980" height="560" viewBox="0 0 980 560">
<rect width="100%" height="100%" fill="#ffffff"/>
<text x="490.0" y="32.0" font-size="20" font-family="Arial, Helvetica, sans-serif" text-anchor="middle" font-weight="700" fill="#202124">LG-covariant valence-depth scan: ratio to full112</text>
<text x="490.0" y="544.0" font-size="12" font-family="Arial, Helvetica, sans-serif" text-anchor="middle" font-weight="400" fill="#202124">window / case</text>
<text x="16.0" y="270.0" font-size="12" font-family="Arial, Helvetica, sans-serif" text-anchor="middle" font-weight="400" fill="#202124">ratio to full112</text>
<line x1="86" y1="468" x2="946" y2="468" stroke="#333"/>
<line x1="86" y1="72" x2="86" y2="468" stroke="#333"/>
<line x1="81" y1="468.0" x2="946" y2="468.0" stroke="#e5e7eb"/>
<text x="76.0" y="472.0" font-size="11" font-family="Arial, Helvetica, sans-serif" text-anchor="end" font-weight="400" fill="#202124">-0.28</text>
<line x1="81" y1="388.8" x2="946" y2="388.8" stroke="#e5e7eb"/>
<text x="76.0" y="392.8" font-size="11" font-family="Arial, Helvetica, sans-serif" text-anchor="end" font-weight="400" fill="#202124">0.39</text>
<line x1="81" y1="309.6" x2="946" y2="309.6" stroke="#e5e7eb"/>
<text x="76.0" y="313.6" font-size="11" font-family="Arial, Helvetica, sans-serif" text-anchor="end" font-weight="400" fill="#202124">1.1</text>
<line x1="81" y1="230.4" x2="946" y2="230.4" stroke="#e5e7eb"/>
<text x="76.0" y="234.4" font-size="11" font-family="Arial, Helvetica, sans-serif" text-anchor="end" font-weight="400" fill="#202124">1.7</text>
<line x1="81" y1="151.2" x2="946" y2="151.2" stroke="#e5e7eb"/>
<text x="76.0" y="155.2" font-size="11" font-family="Arial, Helvetica, sans-serif" text-anchor="end" font-weight="400" fill="#202124">2.4</text>
<line x1="81" y1="72.0" x2="946" y2="72.0" stroke="#e5e7eb"/>
<text x="76.0" y="76.0" font-size="11" font-family="Arial, Helvetica, sans-serif" text-anchor="end" font-weight="400" fill="#202124">3.1</text>
<line x1="86.0" y1="468" x2="86.0" y2="473" stroke="#333"/>
<text x="86.0" y="490.0" font-size="11" font-family="Arial, Helvetica, sans-serif" text-anchor="middle" font-weight="400" fill="#202124">70-112</text>
<line x1="372.7" y1="468" x2="372.7" y2="473" stroke="#333"/>
<text x="372.7" y="490.0" font-size="11" font-family="Arial, Helvetica, sans-serif" text-anchor="middle" font-weight="400" fill="#202124">60-112</text>
<line x1="659.3" y1="468" x2="659.3" y2="473" stroke="#333"/>
<text x="659.3" y="490.0" font-size="11" font-family="Arial, Helvetica, sans-serif" text-anchor="middle" font-weight="400" fill="#202124">50-112</text>
<line x1="946.0" y1="468" x2="946.0" y2="473" stroke="#333"/>
<text x="946.0" y="490.0" font-size="11" font-family="Arial, Helvetica, sans-serif" text-anchor="middle" font-weight="400" fill="#202124">30-112</text>
<polyline points="86.0,370.2 372.7,348.1 659.3,329.9 946.0,317.3" fill="none" stroke="#1f77b4" stroke-width="2.5"/>
<circle cx="86.0" cy="370.2" r="4" fill="#1f77b4" stroke="#fff" stroke-width="1"/>
<circle cx="372.7" cy="348.1" r="4" fill="#1f77b4" stroke="#fff" stroke-width="1"/>
<circle cx="659.3" cy="329.9" r="4" fill="#1f77b4" stroke="#fff" stroke-width="1"/>
<circle cx="946.0" cy="317.3" r="4" fill="#1f77b4" stroke="#fff" stroke-width="1"/>
<line x1="96" y1="54" x2="120" y2="54" stroke="#1f77b4" stroke-width="3"/>
<text x="126.0" y="58.0" font-size="12" font-family="Arial, Helvetica, sans-serif" text-anchor="start" font-weight="400" fill="#202124">H1</text>
<polyline points="86.0,295.5 372.7,318.9 659.3,320.3 946.0,310.6" fill="none" stroke="#d62728" stroke-width="2.5"/>
<circle cx="86.0" cy="295.5" r="4" fill="#d62728" stroke="#fff" stroke-width="1"/>
<circle cx="372.7" cy="318.9" r="4" fill="#d62728" stroke="#fff" stroke-width="1"/>
<circle cx="659.3" cy="320.3" r="4" fill="#d62728" stroke="#fff" stroke-width="1"/>
<circle cx="946.0" cy="310.6" r="4" fill="#d62728" stroke="#fff" stroke-width="1"/>
<line x1="246" y1="54" x2="270" y2="54" stroke="#d62728" stroke-width="3"/>
<text x="276.0" y="58.0" font-size="12" font-family="Arial, Helvetica, sans-serif" text-anchor="start" font-weight="400" fill="#202124">H3</text>
<polyline points="86.0,368.9 372.7,332.3 659.3,317.2 946.0,322.5" fill="none" stroke="#2ca02c" stroke-width="2.5"/>
<circle cx="86.0" cy="368.9" r="4" fill="#2ca02c" stroke="#fff" stroke-width="1"/>
<circle cx="372.7" cy="332.3" r="4" fill="#2ca02c" stroke="#fff" stroke-width="1"/>
<circle cx="659.3" cy="317.2" r="4" fill="#2ca02c" stroke="#fff" stroke-width="1"/>
<circle cx="946.0" cy="322.5" r="4" fill="#2ca02c" stroke="#fff" stroke-width="1"/>
<line x1="396" y1="54" x2="420" y2="54" stroke="#2ca02c" stroke-width="3"/>
<text x="426.0" y="58.0" font-size="12" font-family="Arial, Helvetica, sans-serif" text-anchor="start" font-weight="400" fill="#202124">H4</text>
<polyline points="86.0,342.5 372.7,364.3 659.3,313.2 946.0,320.8" fill="none" stroke="#9467bd" stroke-width="2.5"/>
<circle cx="86.0" cy="342.5" r="4" fill="#9467bd" stroke="#fff" stroke-width="1"/>
<circle cx="372.7" cy="364.3" r="4" fill="#9467bd" stroke="#fff" stroke-width="1"/>
<circle cx="659.3" cy="313.2" r="4" fill="#9467bd" stroke="#fff" stroke-width="1"/>
<circle cx="946.0" cy="320.8" r="4" fill="#9467bd" stroke="#fff" stroke-width="1"/>
<line x1="546" y1="54" x2="570" y2="54" stroke="#9467bd" stroke-width="3"/>
<text x="576.0" y="58.0" font-size="12" font-family="Arial, Helvetica, sans-serif" text-anchor="start" font-weight="400" fill="#202124">H5</text>
<polyline points="86.0,393.7 372.7,126.6 659.3,250.2 946.0,334.0" fill="none" stroke="#ff7f0e" stroke-width="2.5"/>
<circle cx="86.0" cy="393.7" r="4" fill="#ff7f0e" stroke="#fff" stroke-width="1"/>
<circle cx="372.7" cy="126.6" r="4" fill="#ff7f0e" stroke="#fff" stroke-width="1"/>
<circle cx="659.3" cy="250.2" r="4" fill="#ff7f0e" stroke="#fff" stroke-width="1"/>
<circle cx="946.0" cy="334.0" r="4" fill="#ff7f0e" stroke="#fff" stroke-width="1"/>
<line x1="696" y1="54" x2="720" y2="54" stroke="#ff7f0e" stroke-width="3"/>
<text x="726.0" y="58.0" font-size="12" font-family="Arial, Helvetica, sans-serif" text-anchor="start" font-weight="400" fill="#202124">H6</text>
<polyline points="86.0,110.6 372.7,426.7 659.3,362.4 946.0,313.9" fill="none" stroke="#17becf" stroke-width="2.5"/>
<circle cx="86.0" cy="110.6" r="4" fill="#17becf" stroke="#fff" stroke-width="1"/>
<circle cx="372.7" cy="426.7" r="4" fill="#17becf" stroke="#fff" stroke-width="1"/>
<circle cx="659.3" cy="362.4" r="4" fill="#17becf" stroke="#fff" stroke-width="1"/>
<circle cx="946.0" cy="313.9" r="4" fill="#17becf" stroke="#fff" stroke-width="1"/>
<line x1="846" y1="54" x2="870" y2="54" stroke="#17becf" stroke-width="3"/>
<text x="876.0" y="58.0" font-size="12" font-family="Arial, Helvetica, sans-serif" text-anchor="start" font-weight="400" fill="#202124">H7</text>
<polyline points="86.0,431.5 372.7,413.4 659.3,411.3 946.0,295.2" fill="none" stroke="#8c564b" stroke-width="2.5"/>
<circle cx="86.0" cy="431.5" r="4" fill="#8c564b" stroke="#fff" stroke-width="1"/>
<circle cx="372.7" cy="413.4" r="4" fill="#8c564b" stroke="#fff" stroke-width="1"/>
<circle cx="659.3" cy="411.3" r="4" fill="#8c564b" stroke="#fff" stroke-width="1"/>
<circle cx="946.0" cy="295.2" r="4" fill="#8c564b" stroke="#fff" stroke-width="1"/>
<line x1="996" y1="54" x2="1020" y2="54" stroke="#8c564b" stroke-width="3"/>
<text x="1026.0" y="58.0" font-size="12" font-family="Arial, Helvetica, sans-serif" text-anchor="start" font-weight="400" fill="#202124">H8</text>
<polyline points="86.0,139.8 372.7,363.8 659.3,364.1 946.0,198.6" fill="none" stroke="#1f77b4" stroke-width="2.5"/>
<circle cx="86.0" cy="139.8" r="4" fill="#1f77b4" stroke="#fff" stroke-width="1"/>
<circle cx="372.7" cy="363.8" r="4" fill="#1f77b4" stroke="#fff" stroke-width="1"/>
<circle cx="659.3" cy="364.1" r="4" fill="#1f77b4" stroke="#fff" stroke-width="1"/>
<circle cx="946.0" cy="198.6" r="4" fill="#1f77b4" stroke="#fff" stroke-width="1"/>
<line x1="1146" y1="54" x2="1170" y2="54" stroke="#1f77b4" stroke-width="3"/>
<text x="1176.0" y="58.0" font-size="12" font-family="Arial, Helvetica, sans-serif" text-anchor="start" font-weight="400" fill="#202124">H9</text>
</svg>
